<?xml version="1.0" standalone="no"?>
<!DOCTYPE svg PUBLIC "-//W3C//DTD SVG 20010904//EN"
 "http://www.w3.org/TR/2001/REC-SVG-20010904/DTD/svg10.dtd">
<svg version="1.0" xmlns="http://www.w3.org/2000/svg"
 width="820.000000pt" height="607.000000pt" viewBox="0 0 820.000000 607.000000"
 preserveAspectRatio="xMidYMid meet">
<metadata>
Created by potrace 1.16, written by Peter Selinger 2001-2019
</metadata>
<g transform="translate(0.000000,607.000000) scale(0.100000,-0.100000)"
fill="#000000" stroke="none">
<path d="M4365 6050 c-310 -81 -589 -274 -839 -580 -26 -31 -37 -36 -105 -48
-236 -39 -408 -225 -471 -510 -11 -48 -20 -117 -20 -153 l0 -66 -117 -12 c-65
-7 -131 -14 -148 -16 -313 -41 -531 -82 -749 -139 -139 -37 -382 -118 -397
-133 -6 -6 8 -41 31 -86 111 -211 122 -284 135 -887 3 -140 7 -286 10 -325 5
-68 9 -186 20 -490 3 -82 7 -193 10 -245 3 -52 7 -156 10 -230 19 -501 24
-576 46 -645 56 -182 247 -391 534 -587 347 -237 877 -482 1483 -688 l243 -83
92 28 c111 34 397 136 560 199 737 289 1275 616 1498 911 61 81 83 121 114
207 23 64 28 96 36 263 13 281 57 1391 74 1855 16 470 19 488 106 669 36 76
56 128 50 134 -17 17 -296 108 -451 147 -85 22 -222 51 -305 66 -82 15 -151
28 -152 28 -1 1 -9 46 -18 101 -42 243 -98 349 -241 451 -73 52 -252 147 -312
165 -38 11 -44 17 -53 53 -14 55 -69 129 -128 171 -30 22 -51 46 -56 63 -25
103 -153 297 -249 375 -76 63 -119 70 -241 37z m183 -216 c70 -76 134 -191
157 -285 16 -65 18 -67 67 -90 54 -25 111 -82 106 -106 -4 -19 -13 -25 -111
-63 -93 -36 -93 -36 -239 -11 -121 21 -243 29 -256 17 -15 -16 -7 -111 14
-151 l21 -40 -20 -42 c-25 -51 -19 -61 58 -99 70 -33 157 -42 219 -21 26 9 46
11 46 6 0 -5 -12 -33 -26 -62 -39 -76 -35 -103 23 -155 51 -45 154 -102 185
-102 79 0 203 139 233 263 7 27 7 27 -41 27 -27 0 -80 -7 -119 -16 -128 -29
-123 -28 -100 -11 11 8 47 23 80 33 33 10 64 21 69 25 4 4 -11 25 -33 47 -24
23 -37 43 -31 47 5 3 14 4 19 0 5 -3 17 2 25 11 15 14 18 39 20 134 1 29 5 34
21 32 89 -14 332 -133 406 -199 62 -57 83 -92 108 -182 55 -198 66 -449 31
-716 -48 -379 -126 -724 -232 -1035 -76 -222 -79 -227 -126 -237 -64 -14 -391
-9 -460 6 -74 16 -82 28 -82 124 0 97 3 100 96 146 46 22 84 42 84 44 0 2 -36
75 -79 163 -77 155 -131 281 -145 337 -8 34 3 56 65 128 58 67 63 87 17 63
-33 -17 -135 -54 -150 -54 -4 0 -8 13 -8 29 0 48 -49 181 -102 278 -28 51 -53
92 -54 90 -1 -1 24 -108 56 -238 110 -442 150 -802 121 -1074 l-6 -60 -85 -17
c-106 -22 -461 -27 -558 -8 -69 14 -73 18 -92 97 -17 76 -7 107 59 169 42 41
53 57 46 68 -6 7 -59 71 -118 142 -152 181 -170 208 -175 268 -3 47 18 222 33
273 6 17 -10 40 -86 120 -302 320 -414 539 -404 788 10 229 107 417 252 490
53 28 66 30 163 30 96 0 110 -2 162 -29 31 -16 88 -54 125 -85 l68 -56 -34 44
c-43 54 -122 117 -182 145 l-46 22 34 44 c187 245 451 443 708 532 122 42 133
40 203 -38z m322 -609 c0 -9 -7 -18 -15 -21 -8 -4 -15 -16 -15 -29 0 -13 -8
-32 -17 -43 -18 -20 -19 -20 -98 -3 l-79 17 -61 -42 -61 -43 -41 24 c-94 53
-133 85 -133 110 0 30 8 30 180 11 68 -8 122 -10 132 -5 9 5 29 9 45 9 15 1
51 7 78 15 66 18 85 18 85 0z m-1749 -867 c37 -91 187 -291 330 -442 74 -78
79 -86 69 -111 -5 -14 -10 -43 -10 -64 0 -45 -20 -151 -29 -151 -3 0 -31 7
-61 15 -66 18 -50 36 -172 -180 -106 -187 -192 -361 -184 -374 3 -4 19 -11 35
-14 46 -10 62 -33 59 -86 l-3 -46 -75 -8 c-101 -11 -543 -2 -569 12 -13 8 -29
39 -47 94 -22 68 -26 101 -27 198 -1 112 0 119 31 182 18 36 64 103 103 149
99 117 142 195 141 261 0 29 -8 72 -17 97 -23 59 -31 223 -15 288 34 145 132
205 346 211 l81 2 14 -33z m350 -814 c8 -2 25 -29 38 -58 12 -30 48 -85 79
-123 31 -37 87 -105 124 -150 l67 -81 -33 -26 c-40 -30 -66 -81 -66 -131 l0
-37 -72 7 c-40 4 -76 10 -80 13 -3 4 -14 35 -22 69 -9 34 -25 83 -36 108 -30
69 -26 95 19 139 l40 39 -85 79 c-46 44 -84 87 -84 95 0 8 7 28 16 44 16 31
25 32 95 13z m-529 -1047 c31 -18 57 -44 75 -75 l28 -47 0 -425 c0 -416 0
-426 -22 -465 -27 -51 -58 -80 -107 -100 -57 -24 -465 -24 -522 0 -49 20 -80
49 -107 100 -21 39 -22 53 -25 435 -2 266 1 410 8 440 17 67 55 116 114 145
l51 26 230 -3 230 -3 47 -28z m783 9 c75 -35 125 -90 246 -274 61 -92 112
-168 113 -169 1 -1 44 66 96 149 107 171 172 243 256 284 55 27 68 29 207 33
193 4 197 2 197 -107 0 -93 -10 -111 -68 -119 l-42 -6 0 -353 0 -354 37 0 c59
0 73 -21 73 -110 0 -114 6 -111 -235 -112 -239 0 -235 -2 -235 106 0 91 15
116 71 116 l39 0 0 312 c0 172 -4 308 -9 302 -4 -5 -65 -97 -135 -205 l-126
-196 0 -107 0 -106 39 0 c56 0 71 -25 71 -116 0 -107 4 -105 -235 -105 -240 0
-235 -2 -235 109 0 91 14 112 72 112 l38 0 0 103 0 103 -122 192 c-68 105
-128 199 -135 209 -9 14 -12 -49 -12 -294 l-1 -313 37 0 c59 0 73 -21 73 -110
0 -115 5 -112 -235 -112 -239 0 -235 -1 -235 106 0 91 15 116 71 116 l39 0 0
355 0 355 -26 0 c-28 0 -65 16 -76 34 -4 6 -8 44 -8 84 0 110 3 112 193 112
138 0 156 -2 202 -24z m2062 -3 c83 -45 113 -111 113 -248 0 -127 -6 -134
-123 -136 -112 -2 -127 9 -127 92 0 93 6 89 -141 89 -129 0 -130 0 -139 -25
-13 -34 -12 -643 1 -667 9 -16 24 -18 129 -18 142 0 150 5 150 86 l0 54 -74 0
c-94 0 -100 7 -105 116 -3 78 -1 84 23 108 25 26 27 26 189 26 151 0 166 -2
191 -21 l26 -20 0 -191 c0 -213 -7 -249 -56 -307 -56 -65 -83 -71 -339 -71
-212 -1 -229 0 -270 20 -58 28 -91 69 -110 135 -14 46 -16 114 -13 447 3 381
4 394 25 433 11 22 35 53 51 68 54 52 85 57 332 54 211 -2 228 -3 267 -24z
m-726 -939 c16 -19 12 -145 -4 -161 -7 -7 -41 -13 -76 -14 -52 -1 -67 2 -78
17 -17 23 -17 135 0 157 21 27 135 28 158 1z m1047 2 c8 -7 16 -41 19 -74 5
-56 3 -63 -22 -88 -25 -24 -31 -26 -83 -21 -70 7 -82 22 -82 102 0 59 11 89
38 96 28 9 117 -2 130 -15z m-2841 -12 c18 -24 17 -135 -1 -160 -12 -15 -26
-19 -76 -19 -77 1 -100 22 -100 94 0 92 17 108 113 105 36 -1 54 -7 64 -20z"/>
<path d="M2516 2284 c-11 -28 -7 -654 4 -675 10 -17 22 -19 130 -19 94 0 122
3 134 16 14 13 16 58 16 335 0 202 -4 327 -10 340 -10 17 -22 19 -139 19 -108
0 -130 -3 -135 -16z"/>
</g>
</svg>
